 <svg
            width="20"
            height="25"
            viewBox="0 0 20 25"
            fill="none"
            xmlns="http://www.w3.org/2000/svg">
            <path
              d="M16.6363 13.2504C16.6705 16.8825 19.8647 18.0911 19.9 18.1065C19.8729 18.1917 19.3896 19.8289 18.2172 21.5199C17.2037 22.982 16.1518 24.4386 14.4947 24.4688C12.8666 24.4984 12.343 23.5159 10.4815 23.5159C8.62051 23.5159 8.03881 24.4386 6.49751 24.4984C4.89804 24.5582 3.68003 22.9175 2.65817 21.4608C0.569889 18.4812 -1.02594 13.0409 1.11686 9.36871C2.18134 7.54504 4.08377 6.39031 6.14853 6.36069C7.71915 6.33115 9.20167 7.40359 10.1618 7.40359C11.1213 7.40359 12.9229 6.1139 14.8168 6.30329C15.6096 6.33588 17.8352 6.61932 19.2643 8.6839C19.1491 8.75436 16.6087 10.214 16.6363 13.2505V13.2504ZM13.5764 4.33199C14.4256 3.31748 14.9971 1.90527 14.8412 0.5C13.6171 0.54855 12.1371 1.30504 11.2591 2.31893C10.4723 3.21687 9.78322 4.65397 9.96916 6.03138C11.3335 6.13558 12.7272 5.3471 13.5765 4.33199"
              fill="#F4F4F4" />
          </svg>