<svg width="24" height="24" viewBox="0 0 24 24" fill="none" xmlns="http://www.w3.org/2000/svg">
<path fill-rule="evenodd" clip-rule="evenodd" d="M11.8842 2.24996C11.0662 2.24969 10.508 2.24951 10.0294 2.37777C8.73529 2.72452 7.72449 3.73532 7.37774 5.02942C7.2856 5.37328 7.25975 5.75817 7.25259 6.25093C6.44137 6.2565 5.83687 6.29062 5.30702 6.48979C4.45642 6.80953 3.75085 7.42726 3.3215 8.22815C2.99831 8.83099 2.89962 9.57373 2.75587 10.6555L1.93207 16.8344C1.83121 17.5908 1.75021 18.1982 1.71998 18.693C1.68903 19.1994 1.70588 19.6511 1.83664 20.0841C2.14915 21.1189 2.89301 21.9685 3.87745 22.4151C4.28933 22.6019 4.73491 22.6783 5.24096 22.7146C5.73532 22.75 6.34812 22.75 7.11119 22.75H16.8887C17.6517 22.75 18.2646 22.75 18.759 22.7146C19.265 22.6783 19.7106 22.6019 20.1225 22.4151C21.1069 21.9685 21.8508 21.1189 22.1633 20.0841C22.294 19.6511 22.3109 19.1994 22.2799 18.693C22.2497 18.1983 22.1687 17.5908 22.0679 16.8345L21.2441 10.6556C21.1003 9.57374 21.0016 8.83099 20.6784 8.22815C20.2491 7.42726 19.5435 6.80953 18.6929 6.48979C18.163 6.29062 17.5585 6.2565 16.7473 6.25093C16.7402 5.75817 16.7143 5.37328 16.6222 5.02942C16.2754 3.73532 15.2646 2.72452 13.9705 2.37777C13.4919 2.24951 12.9337 2.24969 12.1158 2.24996H11.8842ZM15.25 7.74998V9.99999C15.25 10.4142 15.5857 10.75 16 10.75C16.4142 10.75 16.75 10.4142 16.75 9.99999V7.75231C17.541 7.75964 17.8846 7.78844 18.1651 7.89387C18.6755 8.08571 19.0988 8.45635 19.3564 8.93688C19.5337 9.26753 19.605 9.71226 19.7772 11.0044L20.5772 17.0044C20.6827 17.7956 20.7562 18.3497 20.7827 18.7845C20.809 19.2137 20.7841 19.4625 20.7273 19.6505C20.5398 20.2713 20.0935 20.7811 19.5028 21.049C19.3241 21.1301 19.0807 21.1877 18.6518 21.2184C18.2173 21.2495 17.6583 21.25 16.8601 21.25H7.13978C6.34158 21.25 5.78258 21.2495 5.34815 21.2184C4.91924 21.1877 4.67585 21.1301 4.49707 21.049C3.90641 20.7811 3.46009 20.2713 3.27259 19.6505C3.21583 19.4625 3.19096 19.2137 3.21719 18.7845C3.24375 18.3497 3.31719 17.7956 3.42268 17.0044L4.22268 11.0044C4.39496 9.71226 4.46624 9.26753 4.6435 8.93688C4.90112 8.45635 5.32445 8.08571 5.83482 7.89387C6.11527 7.78844 6.45893 7.75964 7.24996 7.75231V9.99999C7.24996 10.4142 7.58574 10.75 7.99996 10.75C8.41417 10.75 8.74996 10.4142 8.74996 9.99999V7.74998H15.25ZM15.2463 6.24998C15.2396 5.81501 15.2215 5.59751 15.1733 5.41765C14.9652 4.64119 14.3588 4.03471 13.5823 3.82666C13.3202 3.75643 12.9782 3.74999 12 3.74999C11.0217 3.74999 10.6797 3.75643 10.4176 3.82666C9.64116 4.03471 9.03468 4.64119 8.82662 5.41765C8.77843 5.59751 8.76028 5.81501 8.75363 6.24998H15.2463Z" fill="#1B1314"/>
</svg>
