<svg
            width="20"
            height="21"
            viewBox="0 0 20 21"
            fill="none"
            xmlns="http://www.w3.org/2000/svg">
            <path
              d="M14.6794 13.5737C17.0537 12.2731 18.8539 11.2823 19.009 11.2054C19.5052 10.942 20.0178 10.2452 19.009 9.704C18.6833 9.53383 16.9295 8.57366 14.6794 7.33569L11.5603 10.4777L14.6792 13.5737H14.6794Z"
              fill="#FFD900" />
            <path
              d="M11.5603 10.4778L1.62836 20.4624C1.86132 20.4932 2.12453 20.4315 2.43498 20.2613C3.08646 19.9057 9.99242 16.1437 14.6795 13.5744L11.5603 10.4778Z"
              fill="#F43249" />
            <path
              d="M11.5603 10.4777L14.6792 7.35093C14.6792 7.35093 3.13356 1.06602 2.43484 0.695171C2.17197 0.539239 1.87699 0.493137 1.6131 0.539239L11.5603 10.4775V10.4777Z"
              fill="#00EE76" />
            <path
              d="M11.5603 10.4781L1.61292 0.539795C1.20918 0.632846 0.867981 0.988608 0.867981 1.7159V19.2861C0.867981 19.9522 1.13204 20.4318 1.62821 20.4779L11.5601 10.4779L11.5603 10.4781Z"
              fill="#00D3FF" />
          </svg>